<svg preserveAspectRatio="none" overflow="visible" style="display: block;" width="20" height="20" viewBox="0 0 20 20" fill="none" xmlns="http://www.w3.org/2000/svg">
<g id="Icons / bell" clip-path="url(#clip0_0_584)">
<g id="background">
</g>
<path id="bell" d="M16.882 15.7C16.8179 15.795 16.7309 15.8723 16.629 15.9248C16.5271 15.9772 16.4136 16.0031 16.299 16H12.282C12.2148 16.5583 11.9453 17.0727 11.5245 17.4458C11.1038 17.819 10.5609 18.025 9.9985 18.025C9.43613 18.025 8.89324 17.819 8.47248 17.4458C8.05172 17.0727 7.78224 16.5583 7.715 16H3.699C3.58388 16.0067 3.46907 15.9824 3.36654 15.9296C3.264 15.8768 3.17749 15.7976 3.116 15.7C3.05866 15.6013 3.02845 15.4892 3.02845 15.375C3.02845 15.2608 3.05866 15.1487 3.116 15.05L5.016 10.933V7C5.016 5.67829 5.54105 4.41072 6.47563 3.47613C7.41022 2.54155 8.67779 2.0165 9.9995 2.0165C11.3212 2.0165 12.5888 2.54155 13.5234 3.47613C14.458 4.41072 14.983 5.67829 14.983 7V10.933L16.9 15.066C16.9509 15.1646 16.976 15.2744 16.9729 15.3853C16.9697 15.4962 16.9384 15.6045 16.882 15.7V15.7ZM9.999 17.333C10.3826 17.3311 10.754 17.1977 11.0511 16.9552C11.3483 16.7126 11.5533 16.3754 11.632 16H8.366C8.44468 16.3754 8.64971 16.7126 8.94688 16.9552C9.24405 17.1977 9.6154 17.3311 9.999 17.333V17.333ZM14.349 11.133C14.3355 11.1134 14.3295 11.0896 14.332 11.066C14.332 11.049 14.315 11.016 14.315 10.999V7C14.3237 6.42762 14.2185 5.85922 14.0055 5.32789C13.7925 4.79655 13.4759 4.31288 13.0742 3.90504C12.6725 3.49719 12.1937 3.1733 11.6657 2.95222C11.1377 2.73115 10.5709 2.6173 9.9985 2.6173C9.42605 2.6173 8.85933 2.73115 8.33129 2.95222C7.80326 3.1733 7.32447 3.49719 6.92278 3.90504C6.52109 4.31288 6.20453 4.79655 5.99151 5.32789C5.7785 5.85922 5.67329 6.42762 5.682 7V11C5.682 11.017 5.665 11.05 5.665 11.067C5.66748 11.0906 5.66145 11.1144 5.648 11.134L3.715 15.334H16.299L14.349 11.133Z" fill="#1D3261"/>
</g>
<defs>
<clipPath id="clip0_0_584">
<rect width="20" height="20" fill="white"/>
</clipPath>
</defs>
</svg>
