<svg preserveAspectRatio="none" overflow="visible" style="display: block;" width="24" height="24" viewBox="0 0 24 24" fill="none" xmlns="http://www.w3.org/2000/svg">
<g id="Icons / globe-1" clip-path="url(#clip0_0_524)">
<g id="background">
</g>
<path id="globe-1" d="M12 21.6C10.1013 21.6 8.24524 21.037 6.66653 19.9821C5.08782 18.9273 3.85736 17.4279 3.13076 15.6738C2.40416 13.9196 2.21405 11.9894 2.58447 10.1271C2.95488 8.26492 3.8692 6.55436 5.21178 5.21178C6.55436 3.8692 8.26492 2.95488 10.1271 2.58447C11.9894 2.21405 13.9196 2.40416 15.6738 3.13076C17.4279 3.85736 18.9273 5.08782 19.9821 6.66653C21.037 8.24524 21.6 10.1013 21.6 12C21.6 14.5461 20.5886 16.9879 18.7882 18.7882C16.9879 20.5886 14.5461 21.6 12 21.6V21.6ZM19.62 16.4004C20.3306 15.1821 20.7354 13.8097 20.7996 12.4008H17.1996C17.17 13.7652 16.9199 15.1158 16.4592 16.4004H19.62ZM12.3996 11.6004H16.38C16.3421 10.2314 16.0714 8.87893 15.5796 7.60081H12.3996V11.6004ZM19.08 17.1996H16.1196C15.5872 18.4402 14.8506 19.5829 13.9404 20.58C16.0035 20.1059 17.8276 18.9062 19.08 17.1996V17.1996ZM12.3996 20.7804C12.4734 20.7835 12.5473 20.7767 12.6192 20.76C13.7223 19.7561 14.619 18.5467 15.2592 17.1996H12.3996V20.7804ZM15.5796 16.4004C16.0619 15.1195 16.3322 13.7686 16.38 12.4008H12.3996V16.4004H15.5796ZM11.6004 12.3996H7.62C7.65794 13.7686 7.92861 15.1211 8.42041 16.3992H11.6004V12.3996ZM11.6004 20.7792V17.1996H8.76001C9.39505 18.5498 10.2925 19.7601 11.4 20.76C11.4652 20.7777 11.5329 20.7846 11.6004 20.7804V20.7792ZM10.0596 20.58C9.16203 19.5771 8.43261 18.4355 7.89961 17.1996H4.92C6.17245 18.9062 7.99649 20.1059 10.0596 20.58V20.58ZM4.4004 16.4004H7.56001C7.10102 15.1153 6.85105 13.765 6.8196 12.4008H3.2196C3.27429 13.8113 3.67972 15.186 4.3992 16.4004H4.4004ZM4.38 7.59961C3.66922 8.81826 3.26447 10.1911 3.2004 11.6004H6.8004C6.83004 10.236 7.08007 8.88539 7.5408 7.60081L4.38 7.59961ZM4.92 6.7992H7.8804C8.41297 5.559 9.14957 4.41678 10.0596 3.42C7.99649 3.89408 6.17245 5.09378 4.92 6.8004V6.7992ZM11.6004 3.2196C11.5262 3.21639 11.4519 3.22325 11.3796 3.24C10.2765 4.2439 9.37979 5.45327 8.7396 6.8004H11.6004V3.2196ZM8.42041 7.59961C7.93802 8.88086 7.66768 10.2322 7.62 11.6004H11.6004V7.59961H8.42041ZM12.3996 3.2196V6.8004H15.24C14.605 5.45019 13.7075 4.23988 12.6 3.24C12.5348 3.22227 12.4671 3.21538 12.3996 3.2196V3.2196ZM13.9404 3.42C14.851 4.41706 15.588 5.55969 16.1208 6.8004H19.08C17.8276 5.09378 16.0035 3.89408 13.9404 3.42V3.42ZM19.6008 7.59961H16.44C16.8912 8.88674 17.141 10.2358 17.1804 11.5992H20.7804C20.7257 10.1887 20.3203 8.81405 19.6008 7.59961V7.59961Z" fill="#1D3261"/>
</g>
<defs>
<clipPath id="clip0_0_524">
<rect width="24" height="24" fill="white"/>
</clipPath>
</defs>
</svg>
