<svg preserveAspectRatio="none" overflow="visible" style="display: block;" width="24" height="24" viewBox="0 0 24 24" fill="none" xmlns="http://www.w3.org/2000/svg">
<g id="Icons / graph" clip-path="url(#clip0_0_530)">
<g id="background">
</g>
<path id="graph" d="M20.1996 8.7996C19.9525 8.79743 19.7107 8.72816 19.5 8.5992L15.5604 12.2592C15.5835 12.3714 15.5967 12.4855 15.6 12.6C15.6055 12.7873 15.5733 12.9737 15.5055 13.1484C15.4376 13.323 15.3353 13.4822 15.2048 13.6166C15.0743 13.751 14.9181 13.8579 14.7456 13.9308C14.573 14.0038 14.3876 14.0414 14.2002 14.0414C14.0128 14.0414 13.8274 14.0038 13.6548 13.9308C13.4823 13.8579 13.3261 13.751 13.1956 13.6166C13.0651 13.4822 12.9628 13.323 12.8949 13.1484C12.8271 12.9737 12.7949 12.7873 12.8004 12.6V12.5196L10.02 11.1396C9.89097 11.2825 9.73372 11.3972 9.55816 11.4763C9.3826 11.5554 9.19255 11.5972 9 11.5992C8.77673 11.6009 8.55667 11.546 8.3604 11.4396C8.36058 11.4423 8.36017 11.4451 8.35921 11.4476C8.35824 11.4502 8.35675 11.4525 8.35482 11.4544C8.35289 11.4563 8.35057 11.4578 8.34801 11.4588C8.34546 11.4598 8.34272 11.4602 8.34 11.46L5.0004 15.5004C5.12936 15.7111 5.19863 15.9529 5.2008 16.2C5.20208 16.3843 5.16673 16.5669 5.0968 16.7374C5.02688 16.9079 4.92377 17.0628 4.79348 17.1931C4.66318 17.3234 4.5083 17.4265 4.33782 17.4964C4.16734 17.5663 3.98466 17.6017 3.8004 17.6004C3.61313 17.6059 3.42666 17.5737 3.25203 17.5059C3.07741 17.438 2.91818 17.3357 2.78378 17.2052C2.64937 17.0747 2.54253 16.9185 2.46957 16.746C2.3966 16.5734 2.35901 16.388 2.35901 16.2006C2.35901 16.0132 2.3966 15.8278 2.46957 15.6552C2.54253 15.4827 2.64937 15.3265 2.78378 15.196C2.91818 15.0655 3.07741 14.9632 3.25203 14.8953C3.42666 14.8275 3.61313 14.7953 3.8004 14.8008C4.01435 14.8069 4.22507 14.8546 4.4208 14.9412L7.74 10.9404L7.8 10.8804C7.67104 10.6697 7.60177 10.4279 7.5996 10.1808C7.61026 9.81664 7.76242 9.47098 8.02377 9.21717C8.28512 8.96336 8.63509 8.82139 8.9994 8.82139C9.36371 8.82139 9.71368 8.96336 9.97503 9.21717C10.2364 9.47098 10.3885 9.81664 10.3992 10.1808C10.3992 10.2612 10.3788 10.3404 10.3788 10.4208L13.0788 11.7408C13.2092 11.567 13.3782 11.4259 13.5725 11.3286C13.7669 11.2314 13.9811 11.1806 14.1984 11.1804C14.5396 11.1802 14.8683 11.3088 15.1188 11.5404L18.9384 8.0004C18.8488 7.811 18.8028 7.60387 18.804 7.39433C18.8052 7.18478 18.8535 6.97819 18.9453 6.78983C19.0371 6.60146 19.1701 6.43614 19.3344 6.3061C19.4987 6.17605 19.6902 6.08461 19.8946 6.03853C20.099 5.99245 20.3111 5.99291 20.5154 6.03988C20.7196 6.08685 20.9106 6.17912 21.0744 6.30988C21.2381 6.44064 21.3704 6.60653 21.4613 6.79529C21.5523 6.98405 21.5997 7.19085 21.6 7.4004C21.6011 7.58456 21.5656 7.76711 21.4957 7.93745C21.4257 8.10779 21.3225 8.26253 21.1922 8.3927C21.062 8.52287 20.9071 8.62586 20.7367 8.69571C20.5663 8.76556 20.3838 8.80087 20.1996 8.7996ZM3.8004 15.6C3.64127 15.6 3.48866 15.6632 3.37614 15.7757C3.26361 15.8883 3.2004 16.0409 3.2004 16.2C3.2004 16.3591 3.26361 16.5117 3.37614 16.6243C3.48866 16.7368 3.64127 16.8 3.8004 16.8C3.95953 16.8 4.11214 16.7368 4.22466 16.6243C4.33719 16.5117 4.4004 16.3591 4.4004 16.2C4.4004 16.0409 4.33719 15.8883 4.22466 15.7757C4.11214 15.6632 3.95953 15.6 3.8004 15.6ZM9 9.6C8.88133 9.6 8.76533 9.63519 8.66666 9.70112C8.56799 9.76705 8.49109 9.86075 8.44567 9.97039C8.40026 10.08 8.38838 10.2007 8.41153 10.3171C8.43468 10.4334 8.49182 10.5404 8.57574 10.6243C8.65965 10.7082 8.76656 10.7653 8.88295 10.7885C8.99933 10.8116 9.11997 10.7997 9.22961 10.7543C9.33925 10.7089 9.43295 10.632 9.49888 10.5333C9.56481 10.4347 9.6 10.3187 9.6 10.2C9.60147 10.1208 9.58695 10.0421 9.55731 9.96867C9.52768 9.89521 9.48354 9.82848 9.42753 9.77247C9.37152 9.71646 9.30479 9.67232 9.23133 9.64269C9.15788 9.61305 9.0792 9.59853 9 9.6V9.6ZM14.1996 12C14.0809 12 13.9649 12.0352 13.8663 12.1011C13.7676 12.167 13.6907 12.2608 13.6453 12.3704C13.5999 12.48 13.588 12.6007 13.6111 12.7171C13.6343 12.8334 13.6914 12.9404 13.7753 13.0243C13.8592 13.1082 13.9662 13.1653 14.0825 13.1885C14.1989 13.2116 14.3196 13.1997 14.4292 13.1543C14.5388 13.1089 14.6326 13.032 14.6985 12.9333C14.7644 12.8347 14.7996 12.7187 14.7996 12.6C14.8011 12.5208 14.7865 12.4421 14.7569 12.3687C14.7273 12.2952 14.6831 12.2285 14.6271 12.1725C14.5711 12.1165 14.5044 12.0723 14.4309 12.0427C14.3575 12.0131 14.2788 11.9985 14.1996 12V12ZM20.1996 6.8004C20.1204 6.79893 20.0417 6.81345 19.9683 6.84309C19.8948 6.87272 19.8281 6.91686 19.7721 6.97287C19.7161 7.02888 19.6719 7.09561 19.6423 7.16907C19.6127 7.24252 19.5981 7.3212 19.5996 7.4004C19.5996 7.55953 19.6628 7.71214 19.7753 7.82466C19.8879 7.93719 20.0405 8.0004 20.1996 8.0004C20.3587 8.0004 20.5113 7.93719 20.6239 7.82466C20.7364 7.71214 20.7996 7.55953 20.7996 7.4004C20.8011 7.3212 20.7865 7.24252 20.7569 7.16907C20.7273 7.09561 20.6831 7.02888 20.6271 6.97287C20.5711 6.91686 20.5044 6.87272 20.4309 6.84309C20.3575 6.81345 20.2788 6.79893 20.1996 6.8004V6.8004Z" fill="#1D3261"/>
</g>
<defs>
<clipPath id="clip0_0_530">
<rect width="24" height="24" fill="white"/>
</clipPath>
</defs>
</svg>
